<svg width="61" height="60" viewBox="0 0 61 60" fill="none" xmlns="http://www.w3.org/2000/svg">
<g clip-path="url(#clip0_4406_955)">
<path d="M57.1195 21.2612C56.3278 18.8097 56.6653 15.1296 54.6075 12.2882C52.5335 9.42438 48.9263 8.61039 46.8895 7.1207C44.8741 5.64672 42.9991 2.43918 39.609 1.33293C36.3145 0.257852 32.9456 1.71672 30.3335 1.71672C27.7217 1.71672 24.3531 0.2575 21.058 1.33281C17.6685 2.43883 15.7919 5.64707 13.7778 7.12035C11.7432 8.60828 8.13338 9.42449 6.05975 12.2879C4.00369 15.127 4.33779 18.8154 3.54748 21.2611C2.79537 23.5888 0.333496 26.3825 0.333496 30.0003C0.333496 33.6203 2.79256 36.4032 3.54748 38.7393C4.3392 41.1909 4.0017 44.8709 6.05951 47.7123C8.13338 50.5763 11.7404 51.3902 13.7775 52.88C15.7925 54.3537 17.6679 57.5615 21.058 58.6676C24.3503 59.742 27.7244 58.2838 30.3335 58.2838C32.9389 58.2838 36.321 59.7405 39.609 58.6677C42.9987 57.5617 44.874 54.3542 46.8892 52.8802C48.9238 51.3923 52.5336 50.5761 54.6072 47.7127C56.6634 44.8735 56.3291 41.1854 57.1195 38.7394C57.8716 36.4116 60.3335 33.618 60.3335 30.0003C60.3335 26.3805 57.875 23.5984 57.1195 21.2612ZM52.6592 37.298C51.7364 40.1545 51.9781 43.3512 50.811 44.963C49.6281 46.5962 46.5204 47.3423 44.1224 49.0963C41.7506 50.8308 40.0883 53.5804 38.1549 54.2112C36.3259 54.8082 33.3451 53.5961 30.3336 53.5961C27.3001 53.5961 24.35 54.8107 22.5122 54.2112C20.579 53.5804 18.9191 50.8327 16.5447 49.0962C14.1609 47.3528 11.0355 46.5914 9.85604 44.9628C8.6926 43.3564 8.92521 40.1375 8.00799 37.2981C7.10893 34.5162 5.021 32.1074 5.021 30.0003C5.021 27.891 7.10705 25.4905 8.00775 22.7025C8.9306 19.8462 8.68885 16.6492 9.85604 15.0375C11.0382 13.4054 14.1483 12.6569 16.5447 10.9042C18.924 9.1641 20.5759 6.42109 22.5119 5.78934C24.3395 5.19309 27.33 6.40445 30.3334 6.40445C33.3724 6.40445 36.3151 5.18898 38.1548 5.78934C40.0877 6.42004 41.7491 9.16879 44.1224 10.9043C46.5058 12.6477 49.6315 13.4091 50.811 15.0377C51.9746 16.6444 51.7407 19.86 52.659 22.7023V22.7024C53.5581 25.4843 55.646 27.8931 55.646 30.0003C55.646 32.1095 53.5599 34.51 52.6592 37.298ZM41.1315 22.4774C42.0469 23.3928 42.0469 24.8767 41.1315 25.792L29.4003 37.5231C28.485 38.4385 27.0009 38.4384 26.0857 37.5231L19.5356 30.973C18.6203 30.0577 18.6201 28.5737 19.5355 27.6585C20.4508 26.7433 21.935 26.7432 22.85 27.6585L27.7429 32.5513L37.8167 22.4775C38.7321 21.5622 40.2162 21.5622 41.1315 22.4774Z" fill="#242424"/>
</g>
<defs>
<clipPath id="clip0_4406_955">
<rect width="60" height="60" fill="white" transform="translate(0.333496)"/>
</clipPath>
</defs>
</svg>
