<svg width="61" height="60" viewBox="0 0 61 60" fill="none" xmlns="http://www.w3.org/2000/svg">
<g clip-path="url(#clip0_4406_963)">
<path d="M56.0144 31.1019V3.77964C56.0144 2.80489 55.2242 2.01465 54.2495 2.01465H6.96161C5.98687 2.01465 5.19662 2.80489 5.19662 3.77964V33.28C4.34519 33.404 3.51282 33.7346 2.77647 34.2812C0.455155 35.9273 -0.0938738 39.6109 1.85056 41.8827L9.80042 51.5204C14.7214 57.2798 19.949 57.9854 27.7204 57.9854C34.3893 57.9854 37.3709 58.0148 43.183 56.6905L48.8425 55.3369C49.7601 56.6184 51.217 57.4485 52.8548 57.4485H55.6427C58.4128 57.4485 60.6665 55.0744 60.6665 52.1561V36.3784C60.6666 33.592 58.6114 31.3031 56.0144 31.1019ZM48.0812 34.7326L45.7295 33.5382C41.8629 31.5865 37.3924 31.5142 33.4647 33.3403C32.3931 33.7618 30.0559 35.1759 28.8436 35.1286H20.6832C17.9764 35.1286 15.7742 37.3307 15.7742 40.0376V41.3247C15.759 41.3087 15.7431 41.2936 15.7282 41.2773L9.90079 34.9519C9.54815 34.5692 9.15197 34.2489 8.72672 33.9919V16.481H23.1706V22.951C23.1706 23.9257 23.9608 24.7159 24.9356 24.7159H36.0728C37.0475 24.7159 37.8378 23.9257 37.8378 22.951V16.481H52.4846V31.1018C50.4224 31.2611 48.7028 32.7364 48.0812 34.7326ZM26.7004 16.481H34.3077V21.186H26.7004V16.481ZM52.4845 12.951H37.8378V5.54463H52.4846V12.951H52.4845ZM34.3078 5.54463V12.9511H26.7006V5.54463H34.3078ZM23.1705 5.54463V12.9511H8.7266V5.54463H23.1705ZM42.3638 53.2568C36.9947 54.4865 33.7611 54.4367 27.7837 54.4367C20.4884 54.4367 16.9635 54.3188 12.5237 49.274L4.57382 39.6363C3.19101 37.8357 5.69565 35.7101 7.30461 37.3435L13.132 43.669C14.6721 45.2941 16.6102 46.1885 18.999 46.2411H35.1554C36.1302 46.2411 36.9204 45.4508 36.9204 44.4761C36.9204 43.5013 36.1302 42.7111 35.1554 42.7111H19.3041V40.0373C19.3041 39.277 19.9226 38.6583 20.6831 38.6583H28.8435C30.6819 38.79 33.3354 37.2549 34.9528 36.541C37.8945 35.1733 41.2428 35.2274 44.1349 36.6872L47.8312 38.5646V51.9489L42.3638 53.2568ZM57.1366 52.156C57.1366 53.1278 56.4665 53.9184 55.6428 53.9184H52.8549C52.0312 53.9184 51.3612 53.1278 51.3612 52.156V36.3784C51.3612 35.4066 52.0313 34.6159 52.8549 34.6159H55.6428C56.4665 34.6159 57.1366 35.4065 57.1366 36.3784V52.156Z" fill="#242424"/>
</g>
<defs>
<clipPath id="clip0_4406_963">
<rect width="60" height="60" fill="white" transform="translate(0.666504)"/>
</clipPath>
</defs>
</svg>
